# xmcd
#
# Track frame offsets:
#	150
#	12835
#	25742
#	35320
#	47103
#	59835
#	72222
#	88201
#	100269
#	116869
#	126940
#	140961
#	152547
#	164714
#	178488
#	191209
#	204917
#
# Disc length: 2891 seconds
#
# Revision: 1
# Processed by: cddbd v1.4PL0 Copyright (c) Steve Scherf et al.
# Submitted via: EasyCDDAExtractor 5.0.6
#
DISCID=040b4911
DTITLE=Various Artist - The ROots of Bluegrass
DYEAR=1940
DGENRE=Bluegrass
TTITLE0=Uncle Dave Macon - Cumberland Mountain Deer Race
TTITLE1=Gid Tanner and Riley Puckett - On Tanner's Farm
TTITLE2=The Monroe Brothers - Darling Corey
TTITLE3=The Dixon Brothers - Intoxicated Rat
TTITLE4=Arthur Smith Trio - The Paris Waltz
TTITLE5=The Blue Sky Boys - Are You From Dixie
TTITLE6=The Monroe Brothers - On The Banks Of The The Ohio
TTITLE7=Arthur Smith Trio - Freight Train Moan
TTITLE8=The Monroe Brothers - New River Train
TTITLE9=Charlie Monroe's Boys - The Great Speckled Bird
TTITLE10=Bill Monroe and His Blue Grass Boys - Dog House Blues
TTITLE11=Bill Monroe and His Blue Grass Boys - Orange Blossem County
TTITLE12=The Delmore Brothers - Going Back To The Blue Ridge Mountains
TTITLE13=Bill Monroe and His Blue Grass Boys - Blue Moon Of Kentucky
TTITLE14=Bill Monroe and His Blue Grass Boys - Kentucky Waltz
TTITLE15=Brownsferry Four - Will The Circle Be Unbroken
TTITLE16=Lester Flatt and Earl Scruggs - Foggy Mountain Breakdown
EXTD=
EXTT0=
EXTT1=
EXTT2=
EXTT3=
EXTT4=
EXTT5=
EXTT6=
EXTT7=
EXTT8=
EXTT9=
EXTT10=
EXTT11=
EXTT12=
EXTT13=
EXTT14=
EXTT15=
EXTT16=
PLAYORDER=
